<svg xmlns="http://www.w3.org/2000/svg" xmlns:xlink="http://www.w3.org/1999/xlink" width="27" height="32" version="1.1"><rect id="backgroundrect" width="100%" height="100%" x="0" y="0" fill="none" stroke="none"/>
    <!-- Generator: Sketch 41.2 (35397) - http://www.bohemiancoding.com/sketch -->
    <title>ic_home</title>
    <desc>Created with Sketch.</desc>
    <defs>
        <filter x="-50%" y="-50%" width="200%" height="200%" filterUnits="objectBoundingBox" id="filter-1">
            <feOffset dx="0" dy="2" in="SourceAlpha" result="shadowOffsetOuter1"/>
            <feGaussianBlur stdDeviation="2" in="shadowOffsetOuter1" result="shadowBlurOuter1"/>
            <feColorMatrix values="0 0 0 0 0   0 0 0 0 0   0 0 0 0 0  0 0 0 0.05 0" type="matrix" in="shadowBlurOuter1" result="shadowMatrixOuter1"/>
            <feMerge>
                <feMergeNode in="shadowMatrixOuter1"/>
                <feMergeNode in="SourceGraphic"/>
            </feMerge>
        </filter>
    </defs>

<g class="currentLayer"><title>Layer 1</title><g id="OPt-2" stroke="none" stroke-width="1" fill="#C0C0C0" fill-rule="evenodd" class="" fill-opacity="1">
        <g id="prog2_pro3_Mobile-Portrait_opt2-Copy-2" fill="#C0C0C0" fill-opacity="1">
            <g id="nav" fill="#C0C0C0" fill-opacity="1">
                <g id="Group-6" filter="url(#filter-1)" fill="#C0C0C0" fill-opacity="1">
                    <g id="ic_home" fill="#C0C0C0" fill-opacity="1">
                        <g id="Group" fill="#C0C0C0" fill-opacity="1">
                            <path d="M21.658064592939454,8.861683150000001 L20.764289182939454,9.553928640000002 L19.324546432939453,10.668952449999999 C19.130770672939455,9.699766050000001 18.569782182939452,8.86662549 17.793840402939452,8.32487541 L20.56547578293945,6.178328990000001 L19.707153092939453,5.03923189 C19.356360152939452,4.573462190000001 19.444245262939454,3.907347389999998 19.90363429293945,3.5514933599999985 L21.993090422939453,6.322841409999999 C22.302459388939454,6.7333694699999995 22.410496131939453,7.2349187499999985 22.336045948939457,7.707759119999999 C22.266447315939452,8.15035349 22.037126012939453,8.56807048 21.658064592939454,8.861683150000001 L21.658064592939454,8.861683150000001 z" id="Shape" fill="#C0C0C0" fill-opacity="1"/>
                            <path d="M12.87294566293945,18.551279699999995 C15.964306722939455,16.9307587 18.717190102939455,16.4725332 19.411591742939454,17.5854991 C19.981909592939452,18.499444600000004 19.011631702939454,20.232743299999996 17.112312782939455,22.007851099999996 L18.915257012939453,24.940193700000002 L20.143218472939452,24.940193700000002 C20.708032162939453,24.955895999999996 21.161450472939453,25.423746699999995 21.161450472939453,26 L19.566836102939455,26 L17.452749532939453,26 L16.801170972939452,24.940193700000002 L15.756350102939454,23.2407593 L15.347993802939452,22.5769145 C15.492042112939451,22.337786899999998 15.575728842939455,22.057417799999996 15.575728842939455,21.756805400000005 C15.575728842939455,20.8860169 14.879461512939454,20.179960100000002 14.020391862939455,20.179960100000002 C13.972718212939455,20.179960100000002 13.926163282939456,20.1845256 13.879608332939455,20.1886637 L12.87294566293945,18.551279699999995 L12.87294566293945,18.551279699999995 z" id="Shape" fill="#C0C0C0" fill-opacity="1"/>
                            <path d="M4.226371262939452,8.45285797 C4.387772962939454,7.665121469999999 5.075924462939454,7.07295379 5.900846162939452,7.07295379 C6.136324862939453,7.07295379 6.360608462939453,7.121384670000001 6.564552862939454,7.208503710000002 C7.179468162939454,7.471397889999999 7.611334262939451,8.08801776 7.611334262939451,8.80719856 L7.611334262939451,17.031192000000004 C7.611334262939451,17.617092900000003 8.079865562939453,18.0924154 8.658115562939454,18.0924154 C9.079065562939455,18.0924154 9.441146862939455,17.839762399999998 9.607308262939455,17.476458700000002 C9.622048962939452,17.444202699999998 9.635296862939455,17.4108826 9.646865062939455,17.3770193 L10.61882206293945,14.9346842 L8.732192562939453,8.48085683 C8.730886262939453,8.476718640000001 8.729112362939453,8.47236733 8.727806062939454,8.467992639999999 C8.704856162939453,8.395724479999998 8.684703562939454,8.32345629 8.665018462939454,8.250998930000002 C7.977894362939452,5.722089650000001 9.214439162939453,3.0821291700000017 11.526591662939452,2 L15.970277482939451,3.5664388000000002 C16.515779282939455,3.7553385299999995 16.80742162293945,4.355641169999998 16.623908812939455,4.909002690000001 L15.498572692939454,4.501028689999998 C15.053737782939454,4.33972627 14.564307402939455,4.574597409999999 14.405238402939453,5.025421649999998 C14.246168402939453,5.476245630000001 14.477822422939454,5.972662849999999 14.922564012939453,6.133870959999999 L16.083632282939455,6.55478059 C15.880899902939454,7.098682669999999 15.283618912939453,7.376782240000001 14.744088862939453,7.175987759999998 L13.517900272939453,6.71937003 C13.430855442939453,7.219594829999998 13.708130292939451,7.725352990000001 14.195788832939453,7.90195568 L16.544794212939454,8.76860507 C17.535783092939454,9.19805147 18.238675312939453,10.17575179 18.287375352939453,11.325229919999998 C18.289148222939453,11.367417410000002 18.292039762939453,11.40941672 18.292039762939453,11.452006050000001 C18.292039762939453,11.47809045 18.289428122939455,11.503654000000001 18.288681662939453,11.529571570000002 C18.293346082939454,11.517630050000001 18.296331962939455,11.509707679999998 18.296331962939455,11.509707679999998 L21.96286246293945,11.509707679999998 L21.96286246293945,10.07624109 C21.96286246293945,9.675644990000002 22.451453071939454,9.32726344 22.761102491939454,9.14659379 L23.009642835939452,9.014922130000002 L23.009642835939452,12.527868699999999 C22.99639478393945,13.516730799999998 22.20281943693945,14.314422700000001 21.224331912939455,14.314422700000001 L17.088708782939452,14.314422700000001 C16.722429612939454,14.314422700000001 16.36641238293945,14.358596900000002 16.025322512939454,14.441483599999998 C16.041986612939453,14.437392199999998 16.058395882939454,14.431290699999998 16.074978712939455,14.426466900000001 C16.057112632939454,14.431787200000002 16.039223472939454,14.437085 16.021030312939452,14.441483599999998 C16.01039514293945,14.444108100000001 15.999665652939452,14.4469463 15.988936192939455,14.4496888 C14.145782512939455,14.9121481 12.745969762939453,16.514271100000002 12.559564462939456,18.476576800000004 C12.55639196293945,18.510819499999997 12.554340162939454,18.5454163 12.55182086293945,18.580037500000003 C12.543517362939454,18.6937358 12.538013162939453,18.8080018 12.538013162939453,18.923783400000005 C12.538013162939453,20.028424099999995 12.921552362939451,21.042069499999997 13.56062961293945,21.8360962 C13.607464482939456,21.894342100000003 13.655698962939454,21.9514974 13.705238772939452,22.0072836 C13.835759372939453,22.1958985 13.913102102939455,22.4251893 13.913102102939455,22.6732097 C13.913102102939455,23.3151083 13.399694452939453,23.835553000000004 12.76649466293945,23.835553000000004 C12.53866626293945,23.835553000000004 12.326510762939453,23.768202700000003 12.148128962939452,23.652256300000005 L9.826645562939454,22.263083899999998 C9.506360462939455,22.4447001 9.289728162939454,22.7912598 9.289728162939454,23.1897034 C9.289728162939454,23.453023299999998 9.384330962939451,23.694232200000002 9.541067262939453,23.8796326 L10.504441862939451,24.940193700000002 L11.679596662939453,24.940193700000002 L11.68015646293945,24.940193700000002 L11.737067662939452,24.940193700000002 C12.301694662939454,24.955895999999996 12.755112962939453,25.423746699999995 12.755112962939453,26 L10.661924562939454,26 L10.661551262939454,26 L9.397765362939452,26 C9.397765362939452,24.999597199999997 8.597938562939454,24.1887573 7.611334262939451,24.1887573 L7.611334262939451,21.099202500000004 C8.430005262939453,20.9338562 9.047158062939452,20.201928699999996 9.047158062939452,19.323337800000004 C9.047158062939452,19.279282600000002 9.045107262939453,19.235557 9.042027062939454,19.192069500000002 C8.937348862939452,19.207936599999996 8.831364462939455,19.2189087 8.722301862939453,19.2189087 C8.315346162939452,19.2189087 7.936190462939454,19.1025614 7.611334262939451,18.903942900000004 C6.984758362939452,18.5210103 6.564552862939454,17.8267314 6.564552862939454,17.031192000000004 L6.564552862939454,8.807198589999999 C6.564552862939454,8.42400717 6.258169762939453,8.113486209999998 5.880322362939452,8.113486209999998 C5.515815062939453,8.113486209999998 5.218666462939453,8.40272419 5.198140562939454,8.76730448 C5.668166762939453,9.093527729999998 5.976789362939453,9.641142770000002 5.976789362939453,10.262302640000001 C5.976789362939453,11.26260984 5.177056862939452,12.073450700000002 4.190358162939454,12.073450700000002 L4.190358162939454,8.807198589999999 C4.190358262939451,8.685742690000001 4.202859562939452,8.567408239999999 4.226371262939452,8.45285797 L4.226371262939452,8.45285797 z" id="Shape" fill="#C0C0C0" fill-opacity="1"/>
                        </g>
                    </g>
                </g>
            </g>
        </g>
    </g></g></svg>
